
        <svg xmlns="http://www.w3.org/2000/svg" xmlns:xlink="http://www.w3.org/1999/xlink" version="1.1" width="3187.5" height="1129.0297417852494" viewBox="0 0 3187.5 1129.0297417852494">
			
			<g transform="scale(9.375) translate(10, 10)">
				<defs id="SvgjsDefs1400"/><g id="SvgjsG1401" featureKey="5TMTKC-0" transform="matrix(1.2553727496036495,0,0,1.2553727496036495,-12.297630861297844,-12.553727496036496)" fill="#000"><path xmlns="http://www.w3.org/2000/svg" d="M10.796,12h7.438l2.469,15.696c0,0.001,0,0.001,0,0.001l5.573,39.677c0,0.002,0.002,0.004,0.002,0.007  c0,0.002-0.001,0.004,0,0.007l1.493,9.663c0.075,0.487,0.495,0.847,0.988,0.847h4.993c-1.817,1.171-3.026,3.208-3.026,5.526  c0,3.626,2.95,6.576,6.576,6.576s6.575-2.95,6.575-6.576c0-2.318-1.209-4.355-3.026-5.526H71.12  c-1.817,1.171-3.026,3.208-3.026,5.526c0,3.626,2.949,6.576,6.575,6.576s6.575-2.95,6.575-6.576c0-2.318-1.209-4.355-3.026-5.526  h6.295c0.553,0,1-0.448,1-1s-0.447-1-1-1H29.616l-1.184-7.663h54.447c0.499,0,0.921-0.367,0.99-0.861l5.575-39.695  c0.04-0.287-0.046-0.577-0.235-0.795c-0.19-0.218-0.466-0.344-0.755-0.344H22.546l-2.47-15.696C19.999,10.358,19.58,10,19.088,10  h-8.292c-0.553,0-1,0.448-1,1S10.243,12,10.796,12z M37.302,88c-2.523,0-4.576-2.053-4.576-4.576s2.053-4.575,4.576-4.575  c2.522,0,4.575,2.052,4.575,4.575S39.824,88,37.302,88z M74.669,88c-2.522,0-4.575-2.053-4.575-4.576s2.053-4.575,4.575-4.575  s4.575,2.052,4.575,4.575S77.191,88,74.669,88z M83.999,52.068H71.002l1.156-11.063h13.395L83.999,52.068z M68.992,52.068H56.101  V41.005h14.047L68.992,52.068z M26.426,54.068h13.148l1.59,12.167H28.135L26.426,54.068z M41.591,54.068h12.51v12.167H43.18  L41.591,54.068z M56.101,54.068h12.682l-1.272,12.167h-11.41V54.068z M56.101,39.005V28.541h15.35l-1.094,10.465H56.101z   M54.101,39.005H39.623l-1.367-10.465h15.845V39.005z M54.101,41.005v11.063H41.329l-1.445-11.063H54.101z M39.313,52.068H26.145  l-1.554-11.063h13.276L39.313,52.068z M82.01,66.235H69.521l1.272-12.167h12.926L82.01,66.235z M85.834,39.005H72.367l1.094-10.465  h13.843L85.834,39.005z M36.239,28.541l1.367,10.465H24.311l-1.47-10.465H36.239z"/></g><g id="SvgjsG1402" featureKey="7UBp9i-0" transform="matrix(2.285192442190456,0,0,2.285192442190456,117.53194711569685,16.928700799787716)" fill="#000"><path d="M7.12 9.38 c0.24 0 0.44668 0.03334 0.62002 0.1 l0 2.64 c-0.30666 -0.06666 -0.64666 -0.1 -1.02 -0.1 c-1.8667 0 -2.8 1.1067 -2.8 3.32 l0 4.66 l-2.84 0 l0 -10.34 l2.7 0 l0 1.92 l0.04 0 c0.28 -0.66666 0.72334 -1.2 1.33 -1.6 s1.2633 -0.6 1.97 -0.6 z M13.280000000000001 9.38 c0.97334 0 1.84 0.22664 2.6 0.67998 s1.3567 1.11 1.79 1.97 s0.65 1.85 0.65 2.97 c0 0.10666 -0.0066602 0.28 -0.02 0.52 l-7.46 0 c0.02666 0.82666 0.24332 1.47 0.64998 1.93 s1.03 0.69 1.87 0.69 c0.52 0 0.99666 -0.13 1.43 -0.39 s0.71 -0.57666 0.83 -0.95 l2.5 0 c-0.73334 2.32 -2.3466 3.48 -4.84 3.48 c-0.94666 -0.01334 -1.8233 -0.22 -2.63 -0.62 s-1.45 -1.0233 -1.93 -1.87 s-0.72 -1.83 -0.72 -2.95 c0 -1.0533 0.24334 -2.0134 0.73 -2.88 s1.1333 -1.5133 1.94 -1.94 s1.6767 -0.64 2.61 -0.64 z M15.459999999999999 13.719999999999999 c-0.13334 -0.77334 -0.38 -1.3333 -0.74 -1.68 s-0.87334 -0.52 -1.54 -0.52 c-0.69334 0 -1.24 0.19666 -1.64 0.59 s-0.63334 0.93 -0.7 1.61 l4.62 0 z M24.939999999999998 9.38 c1.4 0 2.54 0.35664 3.42 1.07 s1.36 1.6633 1.44 2.85 l-2.78 0 c-0.18666 -1.1867 -0.88666 -1.78 -2.1 -1.78 c-0.74666 0 -1.3367 0.30666 -1.77 0.92 s-0.65 1.4267 -0.65 2.44 c0 0.97334 0.20666 1.76 0.62 2.36 s0.99334 0.9 1.74 0.9 c1.2933 0 2.0466 -0.7 2.26 -2.1 l2.74 0 c-0.18666 1.3733 -0.71666 2.4234 -1.59 3.15 s-2.0034 1.09 -3.39 1.09 c-1.5333 0 -2.7866 -0.49 -3.76 -1.47 s-1.46 -2.2566 -1.46 -3.83 c0 -1.7067 0.48 -3.0666 1.44 -4.08 s2.24 -1.52 3.84 -1.52 z M36.24 9.38 c0.97334 0 1.84 0.22664 2.6 0.67998 s1.3567 1.11 1.79 1.97 s0.65 1.85 0.65 2.97 c0 0.10666 -0.0066602 0.28 -0.02 0.52 l-7.46 0 c0.02666 0.82666 0.24332 1.47 0.64998 1.93 s1.03 0.69 1.87 0.69 c0.52 0 0.99666 -0.13 1.43 -0.39 s0.71 -0.57666 0.83 -0.95 l2.5 0 c-0.73334 2.32 -2.3466 3.48 -4.84 3.48 c-0.94666 -0.01334 -1.8233 -0.22 -2.63 -0.62 s-1.45 -1.0233 -1.93 -1.87 s-0.72 -1.83 -0.72 -2.95 c0 -1.0533 0.24334 -2.0134 0.73 -2.88 s1.1333 -1.5133 1.94 -1.94 s1.6767 -0.64 2.61 -0.64 z M38.42 13.719999999999999 c-0.13334 -0.77334 -0.38 -1.3333 -0.74 -1.68 s-0.87334 -0.52 -1.54 -0.52 c-0.69334 0 -1.24 0.19666 -1.64 0.59 s-0.63334 0.93 -0.7 1.61 l4.62 0 z M45.86 5.720000000000001 l0 2.34 l-2.84 0 l0 -2.34 l2.84 0 z M45.86 9.66 l0 10.34 l-2.84 0 l0 -10.34 l2.84 0 z M53.919999999999995 9.38 c1.4267 0 2.5666 0.5 3.42 1.5 s1.28 2.3534 1.28 4.06 c0 1.56 -0.41 2.84 -1.23 3.84 s-1.9233 1.5 -3.31 1.5 c-1.36 0 -2.3934 -0.52 -3.1 -1.56 l-0.04 0 l0 4.92 l-2.84 0 l0 -13.98 l2.7 0 l0 1.32 l0.04 0 c0.68 -1.0667 1.7067 -1.6 3.08 -1.6 z M50.839999999999996 14.86 c0 1.0133 0.21336 1.8133 0.64002 2.4 s1.04 0.88 1.84 0.88 c0.82666 0 1.4433 -0.29334 1.85 -0.88 s0.61 -1.3867 0.61 -2.4 c0 -1.04 -0.22 -1.8567 -0.66 -2.45 s-1.0533 -0.89 -1.84 -0.89 s-1.39 0.29334 -1.81 0.88 s-0.63 1.4067 -0.63 2.46 z M63.919999999999995 6.5600000000000005 l0.000019531 3.1 l2.08 0 l0 1.9 l-2.08 0 l0 5.12 c0 0.48 0.08 0.8 0.24 0.96 s0.48 0.24 0.96 0.24 c0.34666 0 0.64 -0.02666 0.88 -0.08 l0 2.22 c-0.4 0.06666 -0.96 0.1 -1.68 0.1 c-1.0933 0 -1.9067 -0.18666 -2.44 -0.56 s-0.8 -1.02 -0.8 -1.94 l0 -6.06 l-1.72 0 l0 -1.9 l1.72 0 l0 -3.1 l2.84 0 z M70.28 5.720000000000001 l0 2.34 l-2.84 0 l0 -2.34 l2.84 0 z M70.28 9.66 l0 10.34 l-2.84 0 l0 -10.34 l2.84 0 z M76.6 5.720000000000001 c0.24 0 0.74 0.02668 1.5 0.08002 l0 2.12 c-0.37334 -0.04 -0.71334 -0.06 -1.02 -0.06 c-0.41334 0 -0.7 0.09 -0.86 0.27 s-0.24 0.49 -0.24 0.93 l0 0.6 l1.96 0 l0 1.9 l-1.96 0 l0 8.44 l-2.84 0 l0 -8.44 l-1.7 0 l0 -1.9 l1.7 0 l0 -0.76 c0 -1.0133 0.30334 -1.7967 0.91 -2.35 s1.4567 -0.83 2.55 -0.83 z M81.02 9.66 l2.34 7.08 l0.04 0 l2.26 -7.08 l2.94 0 l-4.32 11.64 c-0.30666 0.81334 -0.73 1.4067 -1.27 1.78 s-1.29 0.56 -2.25 0.56 c-0.41334 0 -1.0067 -0.03334 -1.78 -0.1 l0 -2.34 c0.50666 0.06666 1.0067 0.1 1.5 0.1 c0.4 0 0.71 -0.12334 0.93 -0.37 s0.33 -0.55666 0.33 -0.93 c0 -0.21334 -0.04 -0.42668 -0.12 -0.64002 l-3.64 -9.7 l3.04 0 z"/></g>
			</g>
		</svg>
	